<svg width="13" height="15" viewBox="0 0 13 15" fill="none" xmlns="http://www.w3.org/2000/svg">
<path opacity="0.7" d="M6.44677 7.7241C7.72797 7.7241 8.32179 8.53435 8.44641 9.68558C8.47566 9.96089 8.44604 10.3624 8.40306 10.8275C8.2593 12.3721 8.09387 14.27 9.32666 14.27C10.3705 14.27 10.9055 12.6013 11.2154 10.6989C11.5138 8.81568 11.197 7.87862 11.3534 7.04216C11.6499 5.45779 13.3082 4.03728 12.796 2.01706C12.5121 0.896261 11.7717 0.369444 11.0391 0.147452C9.35087 -0.364906 8.26002 0.622461 6.44677 0.622461C4.63388 0.622461 3.54376 -0.364906 1.85476 0.147452C1.1226 0.369143 0.381765 0.896261 0.0971353 2.01706C-0.413971 4.03728 1.24396 5.45749 1.5416 7.04216C1.69655 7.87832 1.38158 8.81568 1.67958 10.6989C1.98877 12.6013 2.5248 14.27 3.5676 14.27C4.79967 14.27 4.63532 12.3721 4.49156 10.8275C4.44966 10.3621 4.41788 9.96058 4.44786 9.68528C4.57211 8.53435 5.1746 7.7241 6.44677 7.7241Z" fill="#A3A3A3"/>
</svg>
